<svg xmlns="http://www.w3.org/2000/svg" version="1.1" xmlns:xlink="http://www.w3.org/1999/xlink" xmlns:svgjs="http://svgjs.dev/svgjs" width="256" height="256"><svg width="256" height="256" viewBox="0 0 256 256" fill="none" xmlns="http://www.w3.org/2000/svg">
<g clip-path="url(#clip0_243_7)">
<path d="M256.252 148.496C242.138 151.829 225.968 154.255 214.512 155.654C220.473 153.174 222.788 147.452 221.007 141.579C217.815 131.035 207.078 121.127 195.683 109.417C199.496 103.701 203.468 97.1496 207.311 89.4334C210.577 82.8762 206.138 77.4359 199.655 81.0207C183.534 89.9378 167.474 97.624 146.571 105.214C150.248 107.814 155.97 111.453 158.56 113.326C132.617 130.278 103.652 145.212 97.2186 142.858C93.7009 141.567 94.3639 135.742 100.706 128.182C102.038 126.381 103.339 124.555 104.598 122.694C110.319 113.783 99.619 104.662 90.705 110.702C71.7291 123.553 49.0575 138.655 15.8143 141.675L-0.294678 189.611C35.2506 187.504 67.2783 166.271 80.7597 150.856C76.7877 159.371 74.3198 168.57 75.6274 177.337C77.3955 189.227 93.5659 191.869 105.15 187.888C117.6 183.612 127.638 177.319 137.602 169.381C159.052 180.202 177.082 188.044 217.944 190.536L256.252 148.491V148.496ZM177.757 131.959C183.577 138 187.469 144.155 188.433 148.244C189.587 153.126 188.777 157.3 183.203 157.3C171.778 157.3 162.41 155.99 153.348 154.627C160.022 149.445 173.159 137.298 177.751 131.959H177.757Z" fill="white"></path>
<path d="M136.748 99.1552C147.105 89.0251 149.904 75.3402 142.998 68.5849C136.091 61.8295 122.1 64.5677 111.744 74.6977C101.387 84.8278 98.5877 98.5127 105.494 105.268C112.401 112.023 126.392 109.285 136.748 99.1552Z" fill="white"></path>
</g>
<defs>
<clipPath id="SvgjsClipPath1001">
<rect width="256" height="125.5" fill="white" transform="translate(0 65)"></rect>
</clipPath>
</defs>
</svg><style>@media (prefers-color-scheme: light) { :root { filter: none; } }
@media (prefers-color-scheme: dark) { :root { filter: none; } }
</style></svg>