<svg id="1lsang-logo" xmlns="http://www.w3.org/2000/svg" version="1.1" viewBox="0 0 566.93 566.93">
  <path fill="currentColor" d="M492.41,303.05c-22.99,5.55-49.33,9.59-67.99,11.92,9.71-4.13,13.48-13.66,10.58-23.44-5.2-17.56-22.69-34.06-41.25-53.56,6.21-9.52,12.68-20.43,18.94-33.28,5.32-10.92-1.91-19.98-12.47-14.01-26.26,14.85-52.42,27.65-86.47,40.29,5.99,4.33,15.31,10.39,19.53,13.51-42.26,28.23-89.44,53.1-99.92,49.18-5.73-2.15-4.65-11.85,5.68-24.44,2.17-3,4.29-6.04,6.34-9.14,9.32-14.84-8.11-30.03-22.63-19.97-30.91,21.4-67.84,46.55-121.99,51.58l-26.24,79.83c57.9-3.51,110.07-38.87,132.03-64.54-6.47,14.18-10.49,29.5-8.36,44.1,2.88,19.8,29.22,24.2,48.09,17.57,20.28-7.12,36.63-17.6,52.86-30.82,34.94,18.02,64.31,31.08,130.87,35.23l62.4-70.02ZM364.55,275.51c9.48,10.06,15.82,20.31,17.39,27.12,1.88,8.13.56,15.08-8.52,15.08-18.61,0-33.87-2.18-48.63-4.45,10.87-8.63,32.27-28.86,39.75-37.75Z"/>
  <path fill="currentColor" d="M297.75,220.88c16.87-16.87,21.43-39.66,10.18-50.91-11.25-11.25-34.04-6.69-50.91,10.18-16.87,16.87-21.43,39.66-10.18,50.91,11.25,11.25,34.04,6.69,50.91-10.18Z"/>
</svg>